<mxfile host="app.diagrams.net" agent="Mozilla/5.0 (Macintosh; Intel Mac OS X 10_15_7) AppleWebKit/537.36 (KHTML, like Gecko) Chrome/134.0.0.0 Safari/537.36" version="26.1.1">
  <diagram name="Page-1" id="W2n506aeAyr-2gvqUGY9">
    <mxGraphModel dx="3875" dy="2078" grid="1" gridSize="10" guides="1" tooltips="1" connect="1" arrows="1" fold="1" page="1" pageScale="1" pageWidth="827" pageHeight="1169" math="0" shadow="0">
      <root>
        <mxCell id="0" />
        <mxCell id="1" parent="0" />
        <mxCell id="fxjV91FD2FMIfI7J4CBO-36" value="" style="rounded=1;whiteSpace=wrap;html=1;align=left;arcSize=32;absoluteArcSize=1;spacingLeft=10;" vertex="1" parent="1">
          <mxGeometry x="-420" y="710" width="260" height="50" as="geometry" />
        </mxCell>
        <mxCell id="fxjV91FD2FMIfI7J4CBO-13" value="" style="rounded=1;whiteSpace=wrap;html=1;align=left;absoluteArcSize=1;arcSize=32;" vertex="1" parent="1">
          <mxGeometry x="20" y="400" width="260" height="140" as="geometry" />
        </mxCell>
        <mxCell id="fxjV91FD2FMIfI7J4CBO-4" value="DAGSTER-DEPLOYMENT REPO" style="rounded=1;whiteSpace=wrap;html=1;dashed=1;align=center;verticalAlign=top;absoluteArcSize=1;arcSize=32;" vertex="1" parent="1">
          <mxGeometry x="20" y="-20" width="680" height="370" as="geometry" />
        </mxCell>
        <mxCell id="fxjV91FD2FMIfI7J4CBO-9" value="" style="edgeStyle=orthogonalEdgeStyle;rounded=0;orthogonalLoop=1;jettySize=auto;html=1;strokeColor=default;endArrow=none;startFill=0;dashed=1;entryX=0.207;entryY=1.002;entryDx=0;entryDy=0;entryPerimeter=0;" edge="1" parent="1" target="fxjV91FD2FMIfI7J4CBO-4">
          <mxGeometry relative="1" as="geometry">
            <mxPoint x="161" y="400" as="sourcePoint" />
            <Array as="points" />
          </mxGeometry>
        </mxCell>
        <mxCell id="fxjV91FD2FMIfI7J4CBO-1" value="" style="rounded=1;whiteSpace=wrap;html=1;align=left;absoluteArcSize=1;arcSize=32;" vertex="1" parent="1">
          <mxGeometry x="30" y="410" width="260" height="140" as="geometry" />
        </mxCell>
        <mxCell id="fxjV91FD2FMIfI7J4CBO-18" style="edgeStyle=orthogonalEdgeStyle;rounded=0;orthogonalLoop=1;jettySize=auto;html=1;entryX=1;entryY=0.5;entryDx=0;entryDy=0;exitX=0.25;exitY=1;exitDx=0;exitDy=0;" edge="1" parent="1" source="fxjV91FD2FMIfI7J4CBO-2" target="fxjV91FD2FMIfI7J4CBO-15">
          <mxGeometry relative="1" as="geometry" />
        </mxCell>
        <mxCell id="fxjV91FD2FMIfI7J4CBO-2" value="DAEMON&lt;div&gt;&lt;br&gt;&lt;/div&gt;&lt;div&gt;- manage schedules / sensors / backfills&lt;/div&gt;&lt;div&gt;- read run queues&lt;/div&gt;&lt;div&gt;-&amp;gt; launch jobs&lt;/div&gt;" style="rounded=1;whiteSpace=wrap;html=1;align=left;arcSize=32;absoluteArcSize=1;spacingLeft=10;" vertex="1" parent="1">
          <mxGeometry x="440" y="415" width="260" height="130" as="geometry" />
        </mxCell>
        <mxCell id="fxjV91FD2FMIfI7J4CBO-5" value="dagster.yaml&lt;div&gt;&lt;br&gt;&lt;/div&gt;&lt;div&gt;dagster instance configuration:&lt;/div&gt;&lt;div style=&quot;&quot;&gt;- run coordinator&lt;/div&gt;&lt;div style=&quot;&quot;&gt;- run laucher&lt;/div&gt;&lt;div style=&quot;&quot;&gt;- run storage&lt;/div&gt;&lt;div style=&quot;&quot;&gt;- schedule storage&lt;/div&gt;&lt;div style=&quot;&quot;&gt;- event log storage&lt;/div&gt;" style="shape=parallelogram;perimeter=parallelogramPerimeter;whiteSpace=wrap;html=1;fixedSize=1;align=left;spacingLeft=22;" vertex="1" parent="1">
          <mxGeometry x="60" y="20" width="290" height="140" as="geometry" />
        </mxCell>
        <mxCell id="fxjV91FD2FMIfI7J4CBO-6" value="workspace.yml&lt;div&gt;&lt;br&gt;&lt;/div&gt;&lt;div&gt;code locations configuration&lt;/div&gt;&lt;div&gt;For each one, the loading method:&lt;/div&gt;&lt;div&gt;- gRPC server (host, port, loaction name)&lt;/div&gt;&lt;div&gt;- python file (local to dagit / daemon)&lt;/div&gt;&lt;div&gt;- python module (must be local ?)&lt;/div&gt;" style="shape=parallelogram;perimeter=parallelogramPerimeter;whiteSpace=wrap;html=1;fixedSize=1;align=left;spacingLeft=22;" vertex="1" parent="1">
          <mxGeometry x="360" y="20" width="290" height="140" as="geometry" />
        </mxCell>
        <mxCell id="fxjV91FD2FMIfI7J4CBO-7" value="PYTHON PROJECT - UV&lt;br&gt;&lt;div&gt;&lt;span style=&quot;background-color: transparent; color: light-dark(rgb(0, 0, 0), rgb(255, 255, 255));&quot;&gt;-&amp;gt; describe python environment (version + dependencies) forf dagit and daemon&lt;/span&gt;&lt;/div&gt;&lt;div&gt;&lt;span style=&quot;background-color: transparent; color: light-dark(rgb(0, 0, 0), rgb(255, 255, 255));&quot;&gt;-&amp;gt; no python code&lt;/span&gt;&lt;/div&gt;" style="shape=parallelogram;perimeter=parallelogramPerimeter;whiteSpace=wrap;html=1;fixedSize=1;align=left;spacingLeft=22;size=20;" vertex="1" parent="1">
          <mxGeometry x="40" y="180" width="615" height="60" as="geometry" />
        </mxCell>
        <mxCell id="fxjV91FD2FMIfI7J4CBO-8" value="Dockerfile&lt;div&gt;=&amp;gt; image used for dagit + daemon containers&lt;/div&gt;" style="shape=parallelogram;perimeter=parallelogramPerimeter;whiteSpace=wrap;html=1;fixedSize=1;align=left;spacingLeft=22;" vertex="1" parent="1">
          <mxGeometry x="30" y="260" width="290" height="60" as="geometry" />
        </mxCell>
        <mxCell id="fxjV91FD2FMIfI7J4CBO-16" style="edgeStyle=orthogonalEdgeStyle;rounded=0;orthogonalLoop=1;jettySize=auto;html=1;entryX=1;entryY=0.5;entryDx=0;entryDy=0;exitX=0.162;exitY=1;exitDx=0;exitDy=0;exitPerimeter=0;" edge="1" parent="1" source="fxjV91FD2FMIfI7J4CBO-11" target="fxjV91FD2FMIfI7J4CBO-15">
          <mxGeometry relative="1" as="geometry" />
        </mxCell>
        <mxCell id="fxjV91FD2FMIfI7J4CBO-11" value="DAGIT - WEBSERVER&lt;div&gt;- UI&lt;/div&gt;&lt;div&gt;- GraphQL requests&lt;/div&gt;&lt;div&gt;-&amp;gt; launch jobs&lt;/div&gt;&lt;div&gt;&lt;br&gt;&lt;/div&gt;&lt;div&gt;any number of replicas possible&lt;/div&gt;" style="rounded=1;whiteSpace=wrap;html=1;align=left;absoluteArcSize=1;arcSize=32;spacingLeft=10;" vertex="1" parent="1">
          <mxGeometry x="40" y="420" width="260" height="140" as="geometry" />
        </mxCell>
        <mxCell id="fxjV91FD2FMIfI7J4CBO-12" value="" style="rounded=1;whiteSpace=wrap;html=1;align=left;arcSize=32;absoluteArcSize=1;spacingLeft=10;" vertex="1" parent="1">
          <mxGeometry x="-420" y="530" width="260" height="140" as="geometry" />
        </mxCell>
        <mxCell id="fxjV91FD2FMIfI7J4CBO-14" value="CODE LOCATION B SERVER" style="rounded=1;whiteSpace=wrap;html=1;align=left;arcSize=32;absoluteArcSize=1;spacingLeft=10;" vertex="1" parent="1">
          <mxGeometry x="-410" y="720" width="260" height="50" as="geometry" />
        </mxCell>
        <mxCell id="fxjV91FD2FMIfI7J4CBO-15" value="CODE LOCATION A SERVER&lt;div&gt;= gRPC server&lt;/div&gt;&lt;div&gt;&lt;br&gt;&lt;/div&gt;&lt;div&gt;Serves metadata about the collection of its definitions&lt;/div&gt;&lt;div&gt;&lt;br&gt;&lt;/div&gt;&lt;div&gt;one replica possible&lt;/div&gt;" style="rounded=1;whiteSpace=wrap;html=1;align=left;arcSize=32;absoluteArcSize=1;spacingLeft=10;" vertex="1" parent="1">
          <mxGeometry x="-410" y="540" width="260" height="150" as="geometry" />
        </mxCell>
        <mxCell id="fxjV91FD2FMIfI7J4CBO-17" value="gRPC" style="text;html=1;align=center;verticalAlign=middle;whiteSpace=wrap;rounded=0;" vertex="1" parent="1">
          <mxGeometry x="10" y="610" width="60" height="30" as="geometry" />
        </mxCell>
        <mxCell id="fxjV91FD2FMIfI7J4CBO-34" value="" style="edgeStyle=orthogonalEdgeStyle;rounded=0;orthogonalLoop=1;jettySize=auto;html=1;endArrow=none;startFill=0;dashed=1;" edge="1" parent="1" source="fxjV91FD2FMIfI7J4CBO-20" target="fxjV91FD2FMIfI7J4CBO-15">
          <mxGeometry relative="1" as="geometry" />
        </mxCell>
        <mxCell id="fxjV91FD2FMIfI7J4CBO-20" value="CODE LOCATION A REPO&lt;div&gt;&lt;br&gt;&lt;div style=&quot;text-align: left;&quot;&gt;code location =&lt;/div&gt;&lt;div style=&quot;text-align: left;&quot;&gt;- python module of file with the instance of dg.Definitions&lt;/div&gt;&lt;div style=&quot;text-align: left;&quot;&gt;- python environment required to load and execute the definitions&lt;/div&gt;&lt;/div&gt;&lt;div style=&quot;text-align: left;&quot;&gt;&lt;br&gt;&lt;/div&gt;" style="rounded=1;whiteSpace=wrap;html=1;dashed=1;align=center;verticalAlign=top;absoluteArcSize=1;arcSize=32;" vertex="1" parent="1">
          <mxGeometry x="-510" y="-20" width="460" height="470" as="geometry" />
        </mxCell>
        <mxCell id="fxjV91FD2FMIfI7J4CBO-21" value="&lt;div&gt;PYTHON PROJECT - UV&lt;/div&gt;&lt;div&gt;- code location definitions as a module&lt;/div&gt;&lt;div&gt;- python environment&lt;/div&gt;&lt;div&gt;&lt;span style=&quot;white-space: pre;&quot;&gt;&#x9;&lt;/span&gt;- python version&lt;/div&gt;&lt;div&gt;&lt;span style=&quot;white-space: pre;&quot;&gt;&#x9;&lt;/span&gt;- code location definitions as a module&lt;br&gt;&lt;/div&gt;&lt;div&gt;&lt;span style=&quot;white-space: pre;&quot;&gt;&#x9;&lt;/span&gt;- dependencies for code location defs&lt;/div&gt;&lt;div&gt;&lt;span style=&quot;white-space: pre;&quot;&gt;&#x9;&lt;/span&gt;- /!\ dependencies for dagster management&lt;/div&gt;&lt;div&gt;&lt;span style=&quot;white-space: pre;&quot;&gt;&#x9;&lt;/span&gt;&amp;nbsp; (dg aws / postgres / docker or whatever is needed by managers)&lt;br&gt;&lt;/div&gt;&lt;div&gt;&lt;br&gt;&lt;/div&gt;" style="shape=parallelogram;perimeter=parallelogramPerimeter;whiteSpace=wrap;html=1;fixedSize=1;align=left;spacingLeft=22;size=20;" vertex="1" parent="1">
          <mxGeometry x="-490" y="80" width="420" height="140" as="geometry" />
        </mxCell>
        <mxCell id="fxjV91FD2FMIfI7J4CBO-22" value="Dockerfile&lt;div&gt;-&amp;gt; image with python environment&lt;/div&gt;&lt;div&gt;-&amp;gt; postgres credentials&lt;/div&gt;&lt;div&gt;&lt;br&gt;&lt;/div&gt;&lt;div&gt;will be used to:&lt;/div&gt;&lt;div&gt;- run code location server (cmd = dagster coded-server ...&lt;/div&gt;&lt;div&gt;- run code location jobs (custom cmd by dagster)&lt;/div&gt;&lt;div&gt;&lt;br&gt;&lt;/div&gt;&lt;div&gt;Warning:&lt;/div&gt;&lt;div&gt;This image is used by DockerRunLauncher to launch jobs for this code location. It&#39;s the reason why storage credentials are needed (not used by code location server)&lt;/div&gt;" style="shape=parallelogram;perimeter=parallelogramPerimeter;whiteSpace=wrap;html=1;fixedSize=1;align=left;spacingLeft=22;spacingRight=22;" vertex="1" parent="1">
          <mxGeometry x="-500" y="240" width="430" height="180" as="geometry" />
        </mxCell>
        <mxCell id="fxjV91FD2FMIfI7J4CBO-23" value="communication through the DB ?" style="text;html=1;align=center;verticalAlign=middle;whiteSpace=wrap;rounded=0;" vertex="1" parent="1">
          <mxGeometry x="320" y="460" width="110" height="40" as="geometry" />
        </mxCell>
        <mxCell id="fxjV91FD2FMIfI7J4CBO-24" value="&lt;div&gt;CODE LOCATION &#39;PATTERN&#39;&lt;div&gt;One container per code location&lt;/div&gt;&lt;/div&gt;&lt;div&gt;&lt;br&gt;&lt;/div&gt;Many ways to manage code locations:&lt;div&gt;-&amp;nbsp;&lt;span style=&quot;background-color: transparent; color: light-dark(rgb(0, 0, 0), rgb(255, 255, 255));&quot;&gt;one container that deals with multiple code locations (we have to install on it one venv + code location module by code location and run the gRCP server&lt;/span&gt;&lt;div&gt;&lt;div style=&quot;&quot;&gt;&lt;span style=&quot;background-color: transparent; color: light-dark(rgb(0, 0, 0), rgb(255, 255, 255));&quot;&gt;-&amp;nbsp;&lt;/span&gt;&lt;span style=&quot;background-color: transparent; color: light-dark(rgb(0, 0, 0), rgb(255, 255, 255));&quot;&gt;one container per code location&lt;/span&gt;&lt;/div&gt;&lt;div style=&quot;&quot;&gt;&lt;span style=&quot;background-color: transparent; color: light-dark(rgb(0, 0, 0), rgb(255, 255, 255));&quot;&gt;- code locations servers in the dagit container&lt;/span&gt;&lt;/div&gt;&lt;br&gt;https://dagster.io/blog/dagster-code-locations&lt;/div&gt;&lt;/div&gt;" style="text;html=1;align=left;verticalAlign=top;whiteSpace=wrap;rounded=0;" vertex="1" parent="1">
          <mxGeometry x="-910" y="50" width="330" height="250" as="geometry" />
        </mxCell>
        <mxCell id="fxjV91FD2FMIfI7J4CBO-25" value="POSTGRES DB" style="shape=cylinder3;whiteSpace=wrap;html=1;boundedLbl=1;backgroundOutline=1;size=15;" vertex="1" parent="1">
          <mxGeometry x="590" y="670" width="150" height="130" as="geometry" />
        </mxCell>
        <mxCell id="fxjV91FD2FMIfI7J4CBO-33" value="" style="edgeStyle=orthogonalEdgeStyle;rounded=0;orthogonalLoop=1;jettySize=auto;html=1;strokeColor=default;endArrow=none;startFill=0;dashed=1;entryX=0.808;entryY=0.997;entryDx=0;entryDy=0;entryPerimeter=0;exitX=0.5;exitY=0;exitDx=0;exitDy=0;" edge="1" parent="1" source="fxjV91FD2FMIfI7J4CBO-2" target="fxjV91FD2FMIfI7J4CBO-4">
          <mxGeometry relative="1" as="geometry">
            <mxPoint x="582" y="410" as="sourcePoint" />
            <mxPoint x="171" y="321" as="targetPoint" />
            <Array as="points" />
          </mxGeometry>
        </mxCell>
        <mxCell id="fxjV91FD2FMIfI7J4CBO-37" value="" style="edgeStyle=orthogonalEdgeStyle;rounded=0;orthogonalLoop=1;jettySize=auto;html=1;entryX=0;entryY=0.5;entryDx=0;entryDy=0;endArrow=none;startFill=0;dashed=1;" edge="1" parent="1" source="fxjV91FD2FMIfI7J4CBO-35" target="fxjV91FD2FMIfI7J4CBO-36">
          <mxGeometry relative="1" as="geometry" />
        </mxCell>
        <mxCell id="fxjV91FD2FMIfI7J4CBO-35" value="CODE LOCATION B REPO" style="rounded=1;whiteSpace=wrap;html=1;dashed=1;align=center;verticalAlign=middle;absoluteArcSize=1;arcSize=32;" vertex="1" parent="1">
          <mxGeometry x="-660" y="705" width="190" height="60" as="geometry" />
        </mxCell>
        <mxCell id="fxjV91FD2FMIfI7J4CBO-38" style="edgeStyle=orthogonalEdgeStyle;rounded=0;orthogonalLoop=1;jettySize=auto;html=1;entryX=0;entryY=0.5;entryDx=0;entryDy=0;entryPerimeter=0;exitX=0.5;exitY=1;exitDx=0;exitDy=0;strokeWidth=3;fillColor=#e1d5e7;strokeColor=#9673a6;" edge="1" parent="1" source="fxjV91FD2FMIfI7J4CBO-11" target="fxjV91FD2FMIfI7J4CBO-25">
          <mxGeometry relative="1" as="geometry" />
        </mxCell>
        <mxCell id="fxjV91FD2FMIfI7J4CBO-39" style="edgeStyle=orthogonalEdgeStyle;rounded=0;orthogonalLoop=1;jettySize=auto;html=1;entryX=0;entryY=0.5;entryDx=0;entryDy=0;entryPerimeter=0;exitX=0.382;exitY=1.002;exitDx=0;exitDy=0;exitPerimeter=0;strokeWidth=3;fillColor=#e1d5e7;strokeColor=#9673a6;" edge="1" parent="1" source="fxjV91FD2FMIfI7J4CBO-2" target="fxjV91FD2FMIfI7J4CBO-25">
          <mxGeometry relative="1" as="geometry" />
        </mxCell>
      </root>
    </mxGraphModel>
  </diagram>
</mxfile>
